<svg width="12" height="8" viewBox="0 0 12 8" fill="none" xmlns="http://www.w3.org/2000/svg">
<path d="M1.02495 6.8325C1.21232 7.01875 1.46577 7.12329 1.72995 7.12329C1.99414 7.12329 2.24759 7.01875 2.43495 6.8325L6.02495 3.2925L9.56495 6.8325C9.75232 7.01875 10.0058 7.12329 10.27 7.12329C10.5341 7.12329 10.7876 7.01875 10.975 6.8325C11.0687 6.73954 11.1431 6.62893 11.1938 6.50708C11.2446 6.38522 11.2708 6.25451 11.2708 6.1225C11.2708 5.99049 11.2446 5.85978 11.1938 5.73792C11.1431 5.61606 11.0687 5.50546 10.975 5.4125L6.73495 1.1725C6.64199 1.07877 6.53139 1.00438 6.40953 0.953608C6.28767 0.902839 6.15697 0.8767 6.02495 0.8767C5.89294 0.8767 5.76224 0.902839 5.64038 0.953608C5.51852 1.00438 5.40792 1.07877 5.31495 1.1725L1.02495 5.4125C0.931226 5.50546 0.856832 5.61606 0.806063 5.73792C0.755294 5.85978 0.729155 5.99049 0.729155 6.1225C0.729155 6.25451 0.755294 6.38522 0.806063 6.50708C0.856832 6.62893 0.931226 6.73954 1.02495 6.8325Z" fill="#4F4B62"/>
</svg>
