<svg width="10" height="11" viewBox="0 0 10 11" fill="none" xmlns="http://www.w3.org/2000/svg">
<g clip-path="url(#clip0)">
<path d="M9.38574 4.1249C9.38574 4.19938 9.35645 4.26527 9.29785 4.32256L5.20215 8.32725C5.14355 8.38454 5.07617 8.41318 5 8.41318C4.92383 8.41318 4.85645 8.38454 4.79785 8.32725L0.702148 4.32256C0.643555 4.26527 0.614258 4.19938 0.614258 4.1249C0.614258 4.05042 0.643555 3.98454 0.702148 3.92725L1.1416 3.49756C1.2002 3.44027 1.26758 3.41162 1.34375 3.41162C1.41992 3.41162 1.4873 3.44027 1.5459 3.49756L5 6.8749L8.4541 3.49756C8.5127 3.44027 8.58008 3.41162 8.65625 3.41162C8.73242 3.41162 8.7998 3.44027 8.8584 3.49756L9.29785 3.92725C9.35645 3.98454 9.38574 4.05042 9.38574 4.1249Z" fill="#7E8183"/>
</g>
<defs>
<clipPath id="clip0">
<rect width="9" height="11" fill="white" transform="translate(0.5)"/>
</clipPath>
</defs>
</svg>
