<svg width="10" height="7" viewBox="0 0 10 7" fill="none" xmlns="http://www.w3.org/2000/svg">
<path d="M9.16658 1.14174C9.01045 0.986532 8.79924 0.899414 8.57908 0.899414C8.35893 0.899414 8.14772 0.986532 7.99158 1.14174L4.99992 4.09174L2.04992 1.14174C1.89378 0.986532 1.68257 0.899414 1.46242 0.899414C1.24226 0.899414 1.03105 0.986532 0.874917 1.14174C0.79681 1.21921 0.734814 1.31138 0.692507 1.41293C0.6502 1.51448 0.628418 1.6234 0.628418 1.73341C0.628418 1.84342 0.6502 1.95234 0.692507 2.05389C0.734814 2.15544 0.79681 2.24761 0.874917 2.32507L4.40825 5.85841C4.48572 5.93651 4.57789 5.99851 4.67944 6.04082C4.78099 6.08312 4.88991 6.10491 4.99992 6.10491C5.10993 6.10491 5.21885 6.08312 5.3204 6.04082C5.42195 5.99851 5.51411 5.93651 5.59158 5.85841L9.16658 2.32507C9.24469 2.24761 9.30669 2.15544 9.34899 2.05389C9.3913 1.95234 9.41308 1.84342 9.41308 1.73341C9.41308 1.6234 9.3913 1.51448 9.34899 1.41293C9.30669 1.31138 9.24469 1.21921 9.16658 1.14174Z" fill="#111563"/>
</svg>
