<svg width="14" height="15" viewBox="0 0 14 15" fill="none" xmlns="http://www.w3.org/2000/svg">
<path d="M11.0834 2.83329H9.91675V2.24996C9.91675 2.09525 9.85529 1.94688 9.74589 1.83748C9.6365 1.72808 9.48812 1.66663 9.33342 1.66663C9.17871 1.66663 9.03033 1.72808 8.92094 1.83748C8.81154 1.94688 8.75008 2.09525 8.75008 2.24996V2.83329H5.25008V2.24996C5.25008 2.09525 5.18862 1.94688 5.07923 1.83748C4.96983 1.72808 4.82146 1.66663 4.66675 1.66663C4.51204 1.66663 4.36367 1.72808 4.25427 1.83748C4.14487 1.94688 4.08342 2.09525 4.08342 2.24996V2.83329H2.91675C2.45262 2.83329 2.0075 3.01767 1.67931 3.34586C1.35112 3.67404 1.16675 4.11916 1.16675 4.58329V11.5833C1.16675 12.0474 1.35112 12.4925 1.67931 12.8207C2.0075 13.1489 2.45262 13.3333 2.91675 13.3333H11.0834C11.5475 13.3333 11.9927 13.1489 12.3209 12.8207C12.649 12.4925 12.8334 12.0474 12.8334 11.5833V4.58329C12.8334 4.11916 12.649 3.67404 12.3209 3.34586C11.9927 3.01767 11.5475 2.83329 11.0834 2.83329ZM11.6667 11.5833C11.6667 11.738 11.6053 11.8864 11.4959 11.9958C11.3865 12.1052 11.2381 12.1666 11.0834 12.1666H2.91675C2.76204 12.1666 2.61367 12.1052 2.50427 11.9958C2.39487 11.8864 2.33341 11.738 2.33341 11.5833V7.49996H11.6667V11.5833ZM11.6667 6.33329H2.33341V4.58329C2.33341 4.42858 2.39487 4.28021 2.50427 4.17081C2.61367 4.06142 2.76204 3.99996 2.91675 3.99996H4.08342V4.58329C4.08342 4.738 4.14487 4.88638 4.25427 4.99577C4.36367 5.10517 4.51204 5.16663 4.66675 5.16663C4.82146 5.16663 4.96983 5.10517 5.07923 4.99577C5.18862 4.88638 5.25008 4.738 5.25008 4.58329V3.99996H8.75008V4.58329C8.75008 4.738 8.81154 4.88638 8.92094 4.99577C9.03033 5.10517 9.17871 5.16663 9.33342 5.16663C9.48812 5.16663 9.6365 5.10517 9.74589 4.99577C9.85529 4.88638 9.91675 4.738 9.91675 4.58329V3.99996H11.0834C11.2381 3.99996 11.3865 4.06142 11.4959 4.17081C11.6053 4.28021 11.6667 4.42858 11.6667 4.58329V6.33329Z" fill="#111563"/>
</svg>
