<svg width="14" height="15" viewBox="0 0 14 15" fill="none" xmlns="http://www.w3.org/2000/svg">
<path d="M11.0833 6.91671H7.58325V3.41671C7.58325 3.262 7.52179 3.11362 7.4124 3.00423C7.303 2.89483 7.15463 2.83337 6.99992 2.83337C6.84521 2.83337 6.69684 2.89483 6.58744 3.00423C6.47804 3.11362 6.41658 3.262 6.41658 3.41671V6.91671H2.91659C2.76188 6.91671 2.6135 6.97817 2.50411 7.08756C2.39471 7.19696 2.33325 7.34533 2.33325 7.50004C2.33325 7.65475 2.39471 7.80312 2.50411 7.91252C2.6135 8.02191 2.76188 8.08337 2.91659 8.08337H6.41658V11.5834C6.41658 11.7381 6.47804 11.8865 6.58744 11.9959C6.69684 12.1052 6.84521 12.1667 6.99992 12.1667C7.15463 12.1667 7.303 12.1052 7.4124 11.9959C7.52179 11.8865 7.58325 11.7381 7.58325 11.5834V8.08337H11.0833C11.238 8.08337 11.3863 8.02191 11.4957 7.91252C11.6051 7.80312 11.6666 7.65475 11.6666 7.50004C11.6666 7.34533 11.6051 7.19696 11.4957 7.08756C11.3863 6.97817 11.238 6.91671 11.0833 6.91671Z" fill="#111563" stroke="#111563" stroke-width="0.5"/>
</svg>
